<mxfile host="Electron" modified="2023-12-12T11:43:33.466Z" agent="Mozilla/5.0 (Windows NT 10.0; Win64; x64) AppleWebKit/537.36 (KHTML, like Gecko) draw.io/22.1.2 Chrome/114.0.5735.289 Electron/25.9.4 Safari/537.36" etag="iCqk9nBidePhVIFABqkx" version="22.1.2" type="device">
  <diagram name="Page-1" id="0cYhQWA6TqmRED1GTuYX">
    <mxGraphModel dx="864" dy="516" grid="1" gridSize="10" guides="1" tooltips="1" connect="1" arrows="1" fold="1" page="1" pageScale="1" pageWidth="827" pageHeight="1169" math="0" shadow="0">
      <root>
        <mxCell id="0" />
        <mxCell id="1" parent="0" />
        <mxCell id="Ti3mGvVx99JL0Yj-yRy9-1" value="&lt;b&gt;DIRECTEUR GENERAL&lt;/b&gt;" style="rounded=1;whiteSpace=wrap;html=1;" vertex="1" parent="1">
          <mxGeometry x="520" y="300" width="120" height="60" as="geometry" />
        </mxCell>
        <mxCell id="Ti3mGvVx99JL0Yj-yRy9-2" value="&lt;b&gt;FOURNISSEUR&lt;/b&gt;" style="rounded=1;whiteSpace=wrap;html=1;dashed=1;" vertex="1" parent="1">
          <mxGeometry x="510" y="140" width="120" height="60" as="geometry" />
        </mxCell>
        <mxCell id="Ti3mGvVx99JL0Yj-yRy9-3" value="&lt;b&gt;EMPLOYE&lt;/b&gt;" style="rounded=1;whiteSpace=wrap;html=1;dashed=1;" vertex="1" parent="1">
          <mxGeometry x="120" y="220" width="120" height="60" as="geometry" />
        </mxCell>
        <mxCell id="Ti3mGvVx99JL0Yj-yRy9-5" value="&lt;b&gt;COMPTABLE&lt;/b&gt;" style="rounded=1;whiteSpace=wrap;html=1;" vertex="1" parent="1">
          <mxGeometry x="320" y="220" width="120" height="60" as="geometry" />
        </mxCell>
        <mxCell id="Ti3mGvVx99JL0Yj-yRy9-6" value="&lt;b&gt;SERVICE INFRASTRUCTURE&lt;/b&gt;" style="rounded=1;whiteSpace=wrap;html=1;" vertex="1" parent="1">
          <mxGeometry x="320" y="80" width="120" height="60" as="geometry" />
        </mxCell>
        <mxCell id="Ti3mGvVx99JL0Yj-yRy9-7" value="&lt;b&gt;RESPONSABLE INFRASTRUCTURE&lt;/b&gt;" style="rounded=1;whiteSpace=wrap;html=1;" vertex="1" parent="1">
          <mxGeometry x="320" y="360" width="120" height="60" as="geometry" />
        </mxCell>
        <mxCell id="Ti3mGvVx99JL0Yj-yRy9-10" value="" style="endArrow=classic;html=1;rounded=0;" edge="1" parent="1">
          <mxGeometry width="50" height="50" relative="1" as="geometry">
            <mxPoint x="130" y="220" as="sourcePoint" />
            <mxPoint x="320" y="90" as="targetPoint" />
          </mxGeometry>
        </mxCell>
        <mxCell id="Ti3mGvVx99JL0Yj-yRy9-21" value="&lt;font style=&quot;font-size: 12px;&quot;&gt;&lt;b&gt;F1&lt;/b&gt;&lt;/font&gt;" style="edgeLabel;html=1;align=center;verticalAlign=middle;resizable=0;points=[];" vertex="1" connectable="0" parent="Ti3mGvVx99JL0Yj-yRy9-10">
          <mxGeometry x="-0.0725" y="-2" relative="1" as="geometry">
            <mxPoint as="offset" />
          </mxGeometry>
        </mxCell>
        <mxCell id="Ti3mGvVx99JL0Yj-yRy9-11" value="" style="verticalLabelPosition=bottom;shadow=0;dashed=0;align=center;html=1;verticalAlign=top;shape=mxgraph.electrical.rot_mech.verticalLabelPosition=bottom;shadow=0;dashed=0;align=center;fillColor=strokeColor;html=1;verticalAlign=top;strokeWidth=1;shape=mxgraph.electrical.rot_mech.rotation;rotation=-180;" vertex="1" parent="1">
          <mxGeometry x="330" y="60" width="29" height="20" as="geometry" />
        </mxCell>
        <mxCell id="Ti3mGvVx99JL0Yj-yRy9-12" value="" style="endArrow=classic;html=1;rounded=0;entryX=0.417;entryY=1.017;entryDx=0;entryDy=0;entryPerimeter=0;" edge="1" parent="1" target="Ti3mGvVx99JL0Yj-yRy9-1">
          <mxGeometry width="50" height="50" relative="1" as="geometry">
            <mxPoint x="440" y="410" as="sourcePoint" />
            <mxPoint x="490" y="360" as="targetPoint" />
          </mxGeometry>
        </mxCell>
        <mxCell id="Ti3mGvVx99JL0Yj-yRy9-25" value="&lt;b&gt;&lt;font style=&quot;font-size: 12px;&quot;&gt;F3&lt;/font&gt;&lt;/b&gt;" style="edgeLabel;html=1;align=center;verticalAlign=middle;resizable=0;points=[];" vertex="1" connectable="0" parent="Ti3mGvVx99JL0Yj-yRy9-12">
          <mxGeometry x="-0.1493" y="-2" relative="1" as="geometry">
            <mxPoint as="offset" />
          </mxGeometry>
        </mxCell>
        <mxCell id="Ti3mGvVx99JL0Yj-yRy9-13" value="" style="endArrow=classic;html=1;rounded=0;exitX=0;exitY=0.5;exitDx=0;exitDy=0;" edge="1" parent="1" source="Ti3mGvVx99JL0Yj-yRy9-1" target="Ti3mGvVx99JL0Yj-yRy9-5">
          <mxGeometry width="50" height="50" relative="1" as="geometry">
            <mxPoint x="520" y="290" as="sourcePoint" />
            <mxPoint x="570" y="240" as="targetPoint" />
          </mxGeometry>
        </mxCell>
        <mxCell id="Ti3mGvVx99JL0Yj-yRy9-27" value="&lt;b&gt;&lt;font style=&quot;font-size: 12px;&quot;&gt;F4&lt;/font&gt;&lt;/b&gt;" style="edgeLabel;html=1;align=center;verticalAlign=middle;resizable=0;points=[];" vertex="1" connectable="0" parent="Ti3mGvVx99JL0Yj-yRy9-13">
          <mxGeometry x="-0.1015" y="-1" relative="1" as="geometry">
            <mxPoint as="offset" />
          </mxGeometry>
        </mxCell>
        <mxCell id="Ti3mGvVx99JL0Yj-yRy9-14" value="" style="endArrow=classic;html=1;rounded=0;entryX=0;entryY=0.75;entryDx=0;entryDy=0;" edge="1" parent="1" target="Ti3mGvVx99JL0Yj-yRy9-2">
          <mxGeometry width="50" height="50" relative="1" as="geometry">
            <mxPoint x="420" y="220" as="sourcePoint" />
            <mxPoint x="470" y="170" as="targetPoint" />
          </mxGeometry>
        </mxCell>
        <mxCell id="Ti3mGvVx99JL0Yj-yRy9-29" value="&lt;b&gt;&lt;font style=&quot;font-size: 12px;&quot;&gt;F5&lt;/font&gt;&lt;/b&gt;" style="edgeLabel;html=1;align=center;verticalAlign=middle;resizable=0;points=[];" vertex="1" connectable="0" parent="Ti3mGvVx99JL0Yj-yRy9-14">
          <mxGeometry x="-0.1496" y="-2" relative="1" as="geometry">
            <mxPoint as="offset" />
          </mxGeometry>
        </mxCell>
        <mxCell id="Ti3mGvVx99JL0Yj-yRy9-15" value="" style="endArrow=classic;html=1;rounded=0;exitX=0.25;exitY=1;exitDx=0;exitDy=0;" edge="1" parent="1" source="Ti3mGvVx99JL0Yj-yRy9-2">
          <mxGeometry width="50" height="50" relative="1" as="geometry">
            <mxPoint x="520" y="220" as="sourcePoint" />
            <mxPoint x="440" y="250" as="targetPoint" />
          </mxGeometry>
        </mxCell>
        <mxCell id="Ti3mGvVx99JL0Yj-yRy9-30" value="&lt;font style=&quot;font-size: 12px;&quot;&gt;&lt;b&gt;F6&lt;/b&gt;&lt;/font&gt;" style="edgeLabel;html=1;align=center;verticalAlign=middle;resizable=0;points=[];" vertex="1" connectable="0" parent="Ti3mGvVx99JL0Yj-yRy9-15">
          <mxGeometry x="0.024" relative="1" as="geometry">
            <mxPoint y="1" as="offset" />
          </mxGeometry>
        </mxCell>
        <mxCell id="Ti3mGvVx99JL0Yj-yRy9-16" value="" style="endArrow=classic;html=1;rounded=0;exitX=0.5;exitY=1;exitDx=0;exitDy=0;entryX=0.5;entryY=0;entryDx=0;entryDy=0;" edge="1" parent="1" source="Ti3mGvVx99JL0Yj-yRy9-5" target="Ti3mGvVx99JL0Yj-yRy9-7">
          <mxGeometry width="50" height="50" relative="1" as="geometry">
            <mxPoint x="220" y="380" as="sourcePoint" />
            <mxPoint x="270" y="330" as="targetPoint" />
          </mxGeometry>
        </mxCell>
        <mxCell id="Ti3mGvVx99JL0Yj-yRy9-31" value="&lt;b&gt;&lt;font style=&quot;font-size: 12px;&quot;&gt;F7&lt;/font&gt;&lt;/b&gt;" style="edgeLabel;html=1;align=center;verticalAlign=middle;resizable=0;points=[];" vertex="1" connectable="0" parent="Ti3mGvVx99JL0Yj-yRy9-16">
          <mxGeometry x="-0.1" y="1" relative="1" as="geometry">
            <mxPoint as="offset" />
          </mxGeometry>
        </mxCell>
        <mxCell id="Ti3mGvVx99JL0Yj-yRy9-17" value="" style="endArrow=classic;html=1;rounded=0;exitX=0.25;exitY=1;exitDx=0;exitDy=0;" edge="1" parent="1" source="Ti3mGvVx99JL0Yj-yRy9-6">
          <mxGeometry width="50" height="50" relative="1" as="geometry">
            <mxPoint x="240" y="210" as="sourcePoint" />
            <mxPoint x="230" y="220" as="targetPoint" />
          </mxGeometry>
        </mxCell>
        <mxCell id="Ti3mGvVx99JL0Yj-yRy9-32" value="&lt;font style=&quot;font-size: 12px;&quot;&gt;&lt;b&gt;F8&lt;/b&gt;&lt;/font&gt;" style="edgeLabel;html=1;align=center;verticalAlign=middle;resizable=0;points=[];" vertex="1" connectable="0" parent="Ti3mGvVx99JL0Yj-yRy9-17">
          <mxGeometry x="-0.1038" y="1" relative="1" as="geometry">
            <mxPoint x="1" as="offset" />
          </mxGeometry>
        </mxCell>
        <mxCell id="Ti3mGvVx99JL0Yj-yRy9-18" value="" style="verticalLabelPosition=bottom;shadow=0;dashed=0;align=center;html=1;verticalAlign=top;shape=mxgraph.electrical.rot_mech.verticalLabelPosition=bottom;shadow=0;dashed=0;align=center;fillColor=strokeColor;html=1;verticalAlign=top;strokeWidth=1;shape=mxgraph.electrical.rot_mech.rotation;rotation=-180;" vertex="1" parent="1">
          <mxGeometry x="399" y="60" width="29" height="20" as="geometry" />
        </mxCell>
        <mxCell id="Ti3mGvVx99JL0Yj-yRy9-19" value="" style="endArrow=classic;html=1;rounded=0;exitX=0;exitY=0.5;exitDx=0;exitDy=0;entryX=0.442;entryY=0.983;entryDx=0;entryDy=0;entryPerimeter=0;" edge="1" parent="1" source="Ti3mGvVx99JL0Yj-yRy9-7" target="Ti3mGvVx99JL0Yj-yRy9-3">
          <mxGeometry width="50" height="50" relative="1" as="geometry">
            <mxPoint x="160" y="380" as="sourcePoint" />
            <mxPoint x="210" y="330" as="targetPoint" />
          </mxGeometry>
        </mxCell>
        <mxCell id="Ti3mGvVx99JL0Yj-yRy9-36" value="&lt;font style=&quot;font-size: 12px;&quot;&gt;&lt;b&gt;F10&lt;/b&gt;&lt;/font&gt;" style="edgeLabel;html=1;align=center;verticalAlign=middle;resizable=0;points=[];" vertex="1" connectable="0" parent="Ti3mGvVx99JL0Yj-yRy9-19">
          <mxGeometry x="0.0447" y="-1" relative="1" as="geometry">
            <mxPoint as="offset" />
          </mxGeometry>
        </mxCell>
        <mxCell id="Ti3mGvVx99JL0Yj-yRy9-20" value="" style="verticalLabelPosition=bottom;shadow=0;dashed=0;align=center;html=1;verticalAlign=top;shape=mxgraph.electrical.rot_mech.verticalLabelPosition=bottom;shadow=0;dashed=0;align=center;fillColor=strokeColor;html=1;verticalAlign=top;strokeWidth=1;shape=mxgraph.electrical.rot_mech.rotation;rotation=0;" vertex="1" parent="1">
          <mxGeometry x="359" y="420" width="29" height="20" as="geometry" />
        </mxCell>
        <mxCell id="Ti3mGvVx99JL0Yj-yRy9-22" value="&lt;b&gt;F2&lt;/b&gt;" style="text;html=1;strokeColor=none;fillColor=none;align=center;verticalAlign=middle;whiteSpace=wrap;rounded=0;" vertex="1" parent="1">
          <mxGeometry x="334.5" y="46" width="20" height="20" as="geometry" />
        </mxCell>
        <mxCell id="Ti3mGvVx99JL0Yj-yRy9-24" value="&lt;font style=&quot;font-size: 10px;&quot;&gt;&lt;b&gt;D7&lt;/b&gt;&lt;/font&gt;" style="text;html=1;strokeColor=none;fillColor=none;align=center;verticalAlign=middle;whiteSpace=wrap;rounded=0;" vertex="1" parent="1">
          <mxGeometry x="313.5" y="63.5" width="20" height="15" as="geometry" />
        </mxCell>
        <mxCell id="Ti3mGvVx99JL0Yj-yRy9-26" value="&lt;font style=&quot;font-size: 10px;&quot;&gt;&lt;b&gt;D8&lt;/b&gt;&lt;/font&gt;" style="text;html=1;strokeColor=none;fillColor=none;align=center;verticalAlign=middle;whiteSpace=wrap;rounded=0;" vertex="1" parent="1">
          <mxGeometry x="565" y="359" width="20" height="20" as="geometry" />
        </mxCell>
        <mxCell id="Ti3mGvVx99JL0Yj-yRy9-28" value="&lt;font style=&quot;font-size: 10px;&quot;&gt;&lt;b&gt;D9&lt;/b&gt;&lt;/font&gt;" style="text;html=1;strokeColor=none;fillColor=none;align=center;verticalAlign=middle;whiteSpace=wrap;rounded=0;" vertex="1" parent="1">
          <mxGeometry x="420" y="280" width="20" height="20" as="geometry" />
        </mxCell>
        <mxCell id="Ti3mGvVx99JL0Yj-yRy9-33" value="&lt;b&gt;F9&lt;/b&gt;" style="text;html=1;strokeColor=none;fillColor=none;align=center;verticalAlign=middle;whiteSpace=wrap;rounded=0;" vertex="1" parent="1">
          <mxGeometry x="408" y="43.5" width="20" height="20" as="geometry" />
        </mxCell>
        <mxCell id="Ti3mGvVx99JL0Yj-yRy9-34" value="&lt;font style=&quot;font-size: 10px;&quot;&gt;&lt;b&gt;D7&lt;br&gt;&lt;/b&gt;&lt;/font&gt;" style="text;html=1;strokeColor=none;fillColor=none;align=center;verticalAlign=middle;whiteSpace=wrap;rounded=0;" vertex="1" parent="1">
          <mxGeometry x="378" y="61" width="30" height="20" as="geometry" />
        </mxCell>
        <mxCell id="Ti3mGvVx99JL0Yj-yRy9-37" value="&lt;b&gt;F11&lt;/b&gt;" style="text;html=1;strokeColor=none;fillColor=none;align=center;verticalAlign=middle;whiteSpace=wrap;rounded=0;" vertex="1" parent="1">
          <mxGeometry x="363.5" y="435" width="20" height="24" as="geometry" />
        </mxCell>
        <mxCell id="Ti3mGvVx99JL0Yj-yRy9-38" value="&lt;font style=&quot;font-size: 10px;&quot;&gt;&lt;b&gt;D7&lt;/b&gt;&lt;/font&gt;" style="text;html=1;strokeColor=none;fillColor=none;align=center;verticalAlign=middle;whiteSpace=wrap;rounded=0;" vertex="1" parent="1">
          <mxGeometry x="387" y="415" width="20" height="20" as="geometry" />
        </mxCell>
      </root>
    </mxGraphModel>
  </diagram>
</mxfile>
